<mxfile host="app.diagrams.net" modified="2023-05-27T01:25:40.653Z" agent="Mozilla/5.0 (Windows NT 10.0; Win64; x64) AppleWebKit/537.36 (KHTML, like Gecko) Chrome/113.0.0.0 Safari/537.36" version="21.3.4" etag="IidKLy0KWauP_hCVlq3T" type="github">
  <diagram name="PÃ¡gina-1" id="MGEBNtItOhdh9RP1grbr">
    <mxGraphModel>
      <root>
        <mxCell id="0" />
        <mxCell id="1" parent="0" />
      </root>
    </mxGraphModel>
  </diagram>
</mxfile>
